<svg width="41" height="41" viewBox="0 0 41 41" fill="none" xmlns="http://www.w3.org/2000/svg">
<path d="M13.2203 27.5454C9.58031 28.3054 6.62031 29.4254 4.34031 30.9054C1.66031 32.6654 0.320312 34.6854 0.320312 36.9654V37.7454C0.320312 38.4654 0.560312 39.0654 1.04031 39.5454C1.52031 40.0254 2.12031 40.2654 2.84031 40.2654H37.7603C38.4803 40.2654 39.0803 40.0254 39.5603 39.5454C40.0403 39.0654 40.2803 38.4654 40.2803 37.7454V36.9654C40.2803 34.6854 38.9003 32.6654 36.1403 30.9054C33.8203 29.4254 30.8203 28.2854 27.1403 27.4854C26.1803 27.2854 25.4003 26.8154 24.8003 26.0754C24.2003 25.3354 23.9003 24.4854 23.9003 23.5254V23.2254C23.9003 22.3854 24.2403 21.7254 24.9203 21.2454C26.5203 20.1254 27.8203 18.5054 28.8203 16.3854C29.8203 14.3454 30.3203 12.3054 30.3203 10.2654C30.3203 8.46542 29.8703 6.80542 28.9703 5.28542C28.0703 3.76542 26.8503 2.55542 25.3103 1.65542C23.7703 0.75542 22.1003 0.30542 20.3003 0.30542C18.5003 0.30542 16.8303 0.75542 15.2903 1.65542C13.7503 2.55542 12.5303 3.76542 11.6303 5.28542C10.7303 6.80542 10.2803 8.46542 10.2803 10.2654C10.2803 12.2654 10.7603 14.2654 11.7203 16.2654C12.6803 18.3454 13.9203 19.9654 15.4403 21.1254C16.0803 21.5654 16.4003 22.1854 16.4003 22.9854V23.5854C16.4003 24.5454 16.1003 25.3954 15.5003 26.1354C14.9003 26.8754 14.1403 27.3454 13.2203 27.5454Z" fill="#fff"/>
</svg>
