<svg width="61" height="48" viewBox="0 0 61 48" fill="none" xmlns="http://www.w3.org/2000/svg">
<path d="M6.18164 0.525879H16.2695H30.6396H44.7021H54.3262C55.957 0.525879 57.4414 1.19482 58.5156 2.26416C59.5898 3.33838 60.2539 4.82275 60.2539 6.45361V9.93506V37.8892V41.3511C60.2539 42.9819 59.585 44.4663 58.5156 45.5405C57.4414 46.6147 55.957 47.2788 54.3262 47.2788H44.9512C44.873 47.2935 44.79 47.2983 44.7021 47.2983C44.6191 47.2983 44.5361 47.2935 44.4531 47.2788H30.8887C30.8105 47.2935 30.7275 47.2983 30.6396 47.2983C30.5566 47.2983 30.4736 47.2935 30.3906 47.2788H16.5186C16.4404 47.2935 16.3574 47.2983 16.2695 47.2983C16.1865 47.2983 16.1035 47.2935 16.0205 47.2788H6.18164C4.55078 47.2788 3.06641 46.6099 1.99219 45.5405C0.917969 44.4712 0.253906 42.9819 0.253906 41.3511V37.8892V9.93506V6.45361C0.253906 4.82275 0.922852 3.33838 1.99219 2.26416C3.06641 1.19482 4.55078 0.525879 6.18164 0.525879ZM27.2021 15.7798L37.2266 22.772C37.3828 22.8696 37.5244 23.0063 37.6367 23.1675C38.0859 23.8169 37.9199 24.7007 37.2754 25.1499L27.29 32.0542C27.0459 32.2544 26.7285 32.3765 26.3867 32.3765C25.5957 32.3765 24.9561 31.7368 24.9561 30.9458V16.9468H24.9609C24.9609 16.6636 25.0439 16.3804 25.2148 16.1313C25.6689 15.4868 26.5576 15.3306 27.2021 15.7798ZM46.1279 39.3198V44.4224H54.3213C55.166 44.4224 55.9326 44.0757 56.4893 43.519C57.0459 42.9624 57.3926 42.1958 57.3926 41.3511V39.3198H46.1279ZM43.2715 44.4224V39.3198H32.0703V44.4224H43.2715ZM29.2139 44.4224V39.3198H17.7002V44.4224H29.2139ZM14.8389 44.4224V39.3198H3.11035V41.3511C3.11035 42.1958 3.45703 42.9624 4.01367 43.519C4.57031 44.0757 5.33691 44.4224 6.18164 44.4224H14.8389ZM3.11035 36.4634H16.2695H30.6396H44.7021H57.3975V11.3657H44.7021H30.6396H16.2695H3.11035V36.4634ZM43.2715 8.50928V3.38232H32.0703V8.50439H43.2715V8.50928ZM46.1279 3.38232V8.50439H57.3926V6.45361C57.3926 5.60889 57.0459 4.84229 56.4893 4.28564C55.9326 3.729 55.166 3.38232 54.3213 3.38232H46.1279ZM29.2139 8.50928V3.38232H17.7002V8.50439H29.2139V8.50928ZM14.8389 8.50928V3.38232H6.18164C5.33691 3.38232 4.57031 3.729 4.01367 4.28564C3.45703 4.84229 3.11035 5.60889 3.11035 6.45361V8.50439H14.8389V8.50928Z" fill="#fff"/>
</svg>
