<svg width="46" height="61" viewBox="0 0 46 61" fill="none" xmlns="http://www.w3.org/2000/svg">
<path d="M23.2539 0.914551C10.8283 0.914551 0.753906 10.9889 0.753906 23.4146C0.753906 28.3074 2.35797 32.7971 5.02422 36.4739C5.07203 36.5621 5.07953 36.6605 5.13391 36.7449L20.1339 59.2449C20.8295 60.2883 22.0014 60.9146 23.2539 60.9146C24.5064 60.9146 25.6783 60.2883 26.3739 59.2449L41.3739 36.7449C41.4292 36.6605 41.4358 36.5621 41.4836 36.4739C44.1498 32.7971 45.7539 28.3074 45.7539 23.4146C45.7539 10.9889 35.6795 0.914551 23.2539 0.914551ZM23.2539 30.9146C19.112 30.9146 15.7539 27.5564 15.7539 23.4146C15.7539 19.2727 19.112 15.9146 23.2539 15.9146C27.3958 15.9146 30.7539 19.2727 30.7539 23.4146C30.7539 27.5564 27.3958 30.9146 23.2539 30.9146Z" fill="#fff"/>
</svg>
