<svg width="43" height="50" viewBox="0 0 43 50" fill="none" xmlns="http://www.w3.org/2000/svg">
<path d="M40.2011 26.4667C40.2011 26.4667 41.8418 23.2417 39.2636 11.8229C36.6855 0.404166 22.5105 -1.06771 13.9511 1.74479C5.39177 4.55729 3.93865 9.98542 3.93865 9.98542C2.39804 11.5806 1.42887 13.6409 1.1824 15.8448C0.535525 19.8854 2.1199 25.6229 2.1199 25.6229C2.1199 25.6229 -1.28322 27.151 0.769901 31.1917C2.82303 35.2323 6.45115 34.2385 6.45115 34.2385C7.4056 36.253 8.8857 37.9728 10.7355 39.2167C9.73876 39.8827 8.87151 40.7245 8.17615 41.701C6.8824 43.4635 5.71053 45.5073 5.76678 46.5104C5.82303 47.5135 8.87927 47.3823 10.2855 47.5042C11.6918 47.626 15.3012 49.0229 16.6137 49.3604C18.8839 49.6005 21.1778 49.4803 23.4105 49.0042C25.6324 48.5354 25.6886 48.826 30.4418 49.126C35.1949 49.426 36.7043 48.5354 37.2386 48.3573C37.773 48.1792 38.8793 46.4823 38.1105 44.4948C37.3418 42.5073 32.373 38.4573 32.373 38.4573C33.1516 38.0243 33.8469 37.456 34.4261 36.7792C35.3309 35.7789 36.1731 34.7237 36.948 33.6198C36.948 33.6198 41.3355 33.676 42.273 30.5729C42.4091 30.1674 42.4633 29.7389 42.4326 29.3122C42.4019 28.8856 42.2869 28.4692 42.0942 28.0873C41.9015 27.7054 41.635 27.3656 41.31 27.0874C40.9851 26.8092 40.6082 26.5982 40.2011 26.4667ZM2.46678 30.1604C1.7074 28.1635 3.4699 27.5823 3.76053 27.3479C3.76053 27.3479 4.5199 29.5135 4.9324 30.5073C5.17617 31.0876 5.33408 31.7002 5.40115 32.326C4.7644 32.2562 4.15748 32.0191 3.64208 31.6387C3.12668 31.2583 2.72117 30.7483 2.46678 30.1604ZM4.05115 15.6854C3.81678 15.8635 3.81678 16.6229 3.81678 16.6229C3.81678 16.6229 5.16677 18.0292 5.11052 18.2073C4.59577 19.4254 4.23972 20.7046 4.05115 22.0135C3.99074 22.9046 3.77168 23.7777 3.40428 24.5917C3.40428 24.5917 1.23865 18.2635 2.76677 15.2729C4.2949 12.2823 4.42615 11.9917 4.42615 11.9917C4.42615 11.9917 7.06053 5.96354 12.5636 4.14479C18.0668 2.32604 25.9886 0.741668 32.6449 4.84792C39.3011 8.95417 39.3293 22.5385 39.2636 23.3073C39.198 24.076 39.0293 24.1229 39.0293 24.1229C39.0142 20.566 37.9796 17.0879 36.048 14.101C32.823 9.17917 28.9512 5.84167 21.573 5.96354C14.1949 6.08542 7.80115 11.8604 7.3324 13.051C6.86365 14.2417 6.45115 15.0385 6.45115 15.0385C6.45115 15.0385 5.63553 13.8104 5.4574 13.8104C5.27928 13.8104 4.81053 14.0448 4.9324 14.401C5.05428 14.7573 5.92615 15.6854 5.92615 15.9198C5.87839 16.2208 5.79985 16.5161 5.69178 16.801C5.69178 16.801 4.28553 15.5073 4.05115 15.6854ZM36.573 44.5698C37.2199 46.0417 37.098 47.0354 36.8074 47.0917C36.5332 47.122 36.2566 47.122 35.9824 47.0917C35.9824 47.0917 33.0011 42.226 32.4105 42.1698C31.8199 42.1135 31.6511 42.2917 31.7636 42.5823C31.8761 42.8729 34.8761 47.2698 34.698 47.326C34.5199 47.3823 33.9949 47.851 33.6386 47.6167C33.2824 47.3823 30.948 43.7354 30.6761 43.7354C30.4043 43.7354 29.7387 43.9042 29.7949 44.0823C29.8512 44.2604 32.4949 47.776 32.2605 47.8885C31.8166 47.98 31.3637 48.0208 30.9105 48.0104C30.9105 48.0104 28.5668 44.551 28.2105 44.551C27.8543 44.551 27.6293 45.1417 27.6293 45.1417C27.6293 45.1417 29.6824 48.1885 29.448 48.1885C27.857 47.7904 26.2225 47.592 24.5824 47.5979C22.2386 47.7198 20.4199 48.6573 18.3668 48.4229C16.3137 48.1885 13.8011 46.5479 11.7855 46.4448C9.7699 46.3417 7.8574 46.3323 7.80115 46.0979C7.7449 45.8635 8.39177 42.7979 12.1418 39.9854C12.648 39.6104 15.7137 42.7417 22.623 42.0385C29.5324 41.3354 30.5355 39.5167 30.8261 39.5167C31.1168 39.5167 35.9261 43.1073 36.573 44.5698ZM33.7605 35.0823C29.5418 38.9448 25.7355 41.2885 18.5824 40.1823C11.4293 39.076 8.56053 35.0823 6.3949 30.1604C4.22928 25.2385 5.36365 7.89479 22.3886 7.77292C27.198 7.77292 32.7668 10.4167 35.6918 17.326C38.6168 24.2354 37.9793 31.2104 33.7605 35.0823ZM40.9886 30.5073C40.6324 32.0917 37.9418 32.2698 37.9418 32.2698C38.2599 31.6994 38.4966 31.0872 38.6449 30.451C38.9918 29.1667 39.2824 27.9948 39.2824 27.9948C39.5618 28.0429 39.8286 28.1469 40.0669 28.3004C40.3052 28.454 40.5101 28.654 40.6694 28.8885C40.8286 29.123 40.939 29.3873 40.9939 29.6654C41.0487 29.9435 41.0469 30.2299 40.9886 30.5073ZM11.6918 16.4448C12.0949 16.5667 16.548 15.451 17.0168 15.451C17.4855 15.451 17.2512 14.9823 16.9605 14.6354C16.6699 14.2885 10.7918 15.451 11.223 15.451C11.2605 15.451 11.2605 16.3323 11.673 16.4448H11.6918ZM28.6793 15.7417C30.3425 16.1174 32.0268 16.3929 33.723 16.5667C34.3043 16.5104 33.9574 16.3885 33.8918 15.976C33.8261 15.5635 28.9136 14.8698 28.6793 14.8698C28.6605 14.8698 28.248 15.6104 28.6605 15.7417H28.6793ZM21.0668 22.5385C21.2355 16.801 16.7261 16.4448 13.5011 17.2135C7.58553 18.6198 7.7074 24.6479 10.923 26.9354C14.1386 29.2229 20.8699 28.2854 21.048 22.5385H21.0668ZM11.5324 26.2885C8.80427 24.3479 8.7199 19.2385 13.7168 18.0479C16.4449 17.401 20.2793 17.701 20.1199 22.5667C19.9605 27.4323 14.2418 28.1917 11.5136 26.2604L11.5324 26.2885ZM27.3293 17.4104C22.8199 19.8198 23.4105 24.2729 26.3355 26.6729C29.2605 29.0729 35.1293 27.9573 34.9512 22.7448C34.773 17.5323 30.0949 15.901 27.3105 17.3823L27.3293 17.4104ZM26.8605 25.9229C24.4418 23.9354 23.9543 20.2979 27.6855 18.2635C29.9918 17.0354 33.8449 18.3573 33.9855 22.6698C34.1261 26.9823 29.2886 27.8917 26.8605 25.9229ZM14.3074 21.3667C13.7824 21.7792 13.0136 23.2417 14.4855 23.776C14.7476 23.8927 15.0363 23.9364 15.3212 23.9026C15.6061 23.8688 15.8766 23.7587 16.1041 23.584C16.3316 23.4092 16.5078 23.1763 16.614 22.9098C16.7201 22.6433 16.7524 22.3531 16.7074 22.0698C16.6137 20.9635 15.1605 20.7104 14.3074 21.3667ZM28.8949 21.3667C28.3699 21.7792 27.6105 23.2417 29.073 23.776C29.335 23.8961 29.6247 23.9424 29.911 23.91C30.1974 23.8776 30.4694 23.7678 30.698 23.5923C30.9265 23.4168 31.1029 23.1823 31.208 22.914C31.3132 22.6457 31.3433 22.3539 31.2949 22.0698C31.2386 20.9635 29.7386 20.7104 28.8949 21.3667ZM20.5136 29.7479C21.6674 30.6912 22.9779 31.4242 24.3855 31.9135C25.7918 32.2698 26.8418 31.7448 26.5511 29.9823C26.4835 29.4584 26.2566 28.968 25.9012 28.5773C25.5457 28.1866 25.0788 27.9146 24.5636 27.7979C24.5024 27.7896 24.4401 27.7966 24.3822 27.8182C24.3243 27.8398 24.2727 27.8754 24.2318 27.9218C24.191 27.9682 24.1623 28.0239 24.1482 28.0841C24.1341 28.1443 24.1351 28.207 24.1512 28.2667C24.2074 28.5573 24.1511 28.2667 24.7324 28.7354C25.3136 29.2042 25.6699 30.5542 25.2011 30.8448C24.7324 31.1354 21.3574 29.1385 21.1043 29.0823C20.8512 29.026 20.3636 29.5135 20.5136 29.7479ZM26.373 34.7917C24.8493 35.2358 23.2725 35.4723 21.6855 35.4948C17.6449 35.6635 16.0605 33.6198 15.6574 33.676C15.2543 33.7323 14.8324 34.1448 14.9543 34.3792C15.0761 34.6135 16.2105 36.1792 20.4012 36.5448C24.3855 36.901 27.0199 35.7854 27.0761 35.6073C27.0672 35.4122 26.993 35.2258 26.8656 35.078C26.7381 34.9301 26.5646 34.8293 26.373 34.7917Z" fill="#1D1D1B"/>
</svg>
