<svg width="58" height="56" viewBox="0 0 58 56" fill="none" xmlns="http://www.w3.org/2000/svg">
<path d="M17.7273 5.16232C17.9103 6.59089 18.17 8.00856 18.5054 9.4092C18.5804 9.5217 19.2742 8.94045 19.3117 8.81857C19.3492 8.6967 19.0304 6.99045 19.0304 6.87795C19.7141 6.96855 20.3907 7.10638 21.0554 7.29045C21.1679 7.29045 21.1679 6.62482 21.1679 6.46545C20.0641 5.92503 18.9122 5.48876 17.7273 5.16232ZM36.0179 5.0592C34.9358 5.60111 33.925 6.27499 33.0085 7.06545C33.1679 7.22482 33.2898 7.5717 33.5242 7.6467C33.7585 7.7217 33.7867 7.37482 34.6773 6.7842C35.5792 6.29762 36.5199 5.88683 37.4898 5.55607C37.6117 5.4717 37.3679 4.85295 37.171 4.61857C36.9742 4.3842 37.1429 4.65607 36.0179 5.0592ZM53.3429 34.1873C50.4554 33.5873 50.3335 32.7342 50.446 32.5842C50.5585 32.4342 51.8804 32.2186 54.8898 28.2248C56.8604 25.3374 57.7165 21.8331 57.2992 18.3623C57.1398 17.8936 56.446 17.9779 55.1242 18.5311C53.8894 19.0515 52.617 19.4777 51.3179 19.8061C51.1585 19.8061 51.5898 19.2248 53.3429 15.1186C55.096 11.0123 54.7304 7.7967 54.3367 7.7592C53.9429 7.7217 49.9117 9.69982 47.3523 10.5717C45.3569 11.2248 43.2735 11.5694 41.1742 11.5936C40.7804 11.4811 43.0492 1.07482 42.9179 0.802947C42.7867 0.531072 40.9679 0.306072 36.421 1.9092C33.3165 3.10234 30.3944 4.72434 27.7398 6.72795C27.7398 6.72795 26.8023 5.0592 22.1148 3.34357C19.5775 2.3017 16.891 1.66884 14.1554 1.46857C13.9679 1.46857 14.2867 2.97795 14.6148 5.27482C14.9429 7.5717 15.3273 11.7717 15.3273 11.8842C15.3273 11.9967 14.2023 12.0529 11.5773 12.0342C8.95229 12.0154 3.24292 11.7529 2.85854 11.9123C2.47417 12.0717 2.48354 14.1717 4.26479 17.9686C5.35481 20.2782 6.77603 22.4163 8.48354 24.3154C8.48354 24.3154 6.81479 25.5811 4.92104 27.1279C3.32313 28.5919 1.95188 30.2855 0.852292 32.1529C0.739792 32.4623 2.07104 33.3154 4.60229 33.6061C6.38787 33.8596 8.13343 34.3417 9.79604 35.0404C9.79604 35.0404 9.09292 35.8654 7.74292 37.1967C6.39292 38.5279 3.00854 44.2842 2.70854 44.8654C2.40854 45.4467 3.18667 46.2248 3.84292 46.2154C4.49917 46.2061 12.6367 45.8779 13.1054 45.8311C13.5742 45.7842 11.671 51.9998 11.596 52.1873C11.521 52.3748 12.8523 52.6842 15.346 52.3936C17.0603 52.0705 18.6398 51.2449 19.8835 50.0217C20.4846 50.7036 21.1981 51.2775 21.9929 51.7186C23.3285 52.359 24.7721 52.7437 26.2492 52.8529C26.2492 52.8529 26.3804 55.1123 26.4648 55.3842C26.5492 55.6561 27.5898 55.6467 28.021 55.6467C28.5139 55.6045 29.0094 55.6045 29.5023 55.6467C29.8102 55.7226 30.1319 55.7226 30.4398 55.6467C30.9272 55.5673 31.4243 55.5673 31.9117 55.6467C32.0531 55.686 32.2023 55.6886 32.345 55.6541C32.4878 55.6197 32.6193 55.5494 32.7273 55.4498C32.8117 55.2904 32.8304 52.6373 32.8304 52.6373C33.3472 52.5604 33.8535 52.4251 34.3398 52.2342C35.1554 51.9154 38.6054 50.0967 38.6054 50.0967C38.9514 50.4461 39.3314 50.7602 39.7398 51.0342C41.4657 51.8918 43.3018 52.507 45.196 52.8623C47.2585 53.2373 48.5335 52.4498 48.6929 51.9248C48.8523 51.3998 48.796 45.1936 48.6929 44.8842C48.5898 44.5748 48.8429 44.5748 52.6773 42.2873C53.9371 41.5314 55.0304 40.5276 55.891 39.3367C56.7515 38.1458 57.3613 36.7927 57.6835 35.3592C57.7023 34.7217 56.221 34.7873 53.3429 34.1873ZM31.3492 54.7186C30.8844 54.8637 30.3895 54.8831 29.9148 54.7748C29.4819 54.5491 28.9958 54.4454 28.5085 54.4748C28.1242 54.5498 27.8898 54.8311 27.7679 54.6717C27.622 54.0867 27.5651 53.483 27.5992 52.8811C27.7117 52.7686 28.771 52.9561 29.821 52.8811C30.871 52.8061 31.3773 52.8248 31.3773 52.9373C31.3773 53.0498 31.5085 54.6811 31.3492 54.7186ZM39.0835 47.2654C38.7166 47.703 38.3154 48.1105 37.8835 48.4842C37.1637 47.9128 36.3915 47.4105 35.5773 46.9842C35.3804 47.0592 35.1085 47.3404 35.1929 47.4904C35.2773 47.6404 37.0679 48.9154 36.9929 49.0373C36.9179 49.1592 35.9054 49.8623 35.7929 49.7404C35.0557 49.1058 34.2826 48.5142 33.4773 47.9686C33.3273 47.9686 32.8585 48.3248 32.9429 48.4842C33.0273 48.6436 35.1648 50.0217 34.9398 50.1811C34.7148 50.3404 33.4679 50.8936 33.3085 50.7717C33.1492 50.6498 31.4992 48.9623 31.3492 48.9623C31.1992 48.9623 30.7679 49.1967 30.8804 49.3936C30.9929 49.5904 32.221 51.0529 32.221 51.0529C29.6843 51.3584 27.1183 51.3269 24.5898 50.9592C21.121 50.3217 18.6742 46.4967 17.5585 42.4186C16.4429 38.3404 16.4429 29.6592 17.6523 24.8592C18.8617 20.0592 20.9898 14.3592 28.5085 14.3029C32.2585 14.3029 36.796 14.5092 40.3492 20.7061C43.9023 26.9029 43.5085 31.8154 42.5429 37.3561C41.5773 42.8967 40.0398 46.2061 39.0835 47.2654ZM50.5585 41.9967C47.2679 43.6936 46.8742 43.8717 46.8085 44.1717C46.7429 44.4717 46.9773 50.9779 46.7054 51.0154C45.1183 50.8889 43.5479 50.6031 42.0179 50.1623C40.696 49.7029 40.1429 49.2811 40.1429 49.1686C41.2001 47.8753 42.0914 46.4549 42.796 44.9404C43.17 44.0398 43.4253 43.0944 43.5554 42.1279C43.5554 42.1279 47.8398 42.3342 48.2429 39.3154C48.646 36.2967 46.5367 35.7623 45.9179 35.6592C45.5086 35.5663 45.0907 35.5161 44.671 35.5092C44.671 35.5092 45.7585 25.8529 42.4867 20.5092C39.2148 15.1654 35.7273 12.3436 28.6492 12.6342C21.571 12.9248 17.7835 16.6561 16.0492 23.8842C14.3148 31.1123 14.7742 35.2654 14.7742 35.2654C14.7742 35.2654 11.3148 35.4061 11.4179 39.6904C11.521 43.9748 16.0398 43.1123 16.0398 43.1123C16.0137 44.4093 16.3726 45.6849 17.071 46.7779C18.2148 48.5217 18.7304 49.1779 18.7304 49.1779C18.7304 49.1779 14.1554 50.9217 14.1179 50.6592C14.0804 50.3967 15.2898 46.4029 15.1304 45.9717C14.971 45.5404 14.1929 44.6967 13.9117 44.6967C13.6304 44.6967 4.80854 45.0811 4.72417 44.6967C4.63979 44.3123 6.68354 41.1717 8.72729 38.5936C10.771 36.0154 11.7742 35.0217 11.7367 34.6748C11.6992 34.3279 10.321 32.6967 7.31167 32.2561C4.30229 31.8154 3.11167 31.8623 3.18667 31.7498C4.65348 29.8596 6.33684 28.148 8.20229 26.6498C9.12918 26.1487 9.93545 25.4512 10.5648 24.6061C8.96845 22.8214 7.5697 20.8695 6.39292 18.7842C4.73354 15.6904 4.63979 13.6279 4.75229 13.5061C5.03354 13.2248 17.4085 13.5623 17.446 13.3279C17.4835 13.0936 15.6835 2.8467 16.0398 2.8467C18.9674 3.70438 21.7957 4.87028 24.4773 6.32482C26.9429 7.89982 27.0648 8.48107 27.7304 8.44357C28.396 8.40607 31.4804 5.45295 35.6335 3.86857C39.7867 2.2842 41.1835 2.18107 41.1835 2.34045C41.1835 2.49982 39.8335 9.19357 39.571 10.4404C39.3085 11.6873 39.1585 13.0092 39.4304 13.0842C42.044 13.1591 44.654 12.8431 47.1742 12.1467C50.8585 11.1061 53.4929 9.65295 53.5398 9.92482C52.6597 12.8575 51.5208 15.7062 50.1367 18.4373C49.021 20.1529 48.571 21.6342 48.8054 21.7561C49.0398 21.8779 50.3617 21.4654 52.8835 20.7061C55.4054 19.9467 55.696 19.8248 55.696 19.9467C55.7437 22.4872 55.025 24.9831 53.6335 27.1092C52.127 29.1437 50.3764 30.9856 48.421 32.5936C48.5531 33.1053 48.7872 33.585 49.1095 34.0039C49.4317 34.4228 49.8353 34.7722 50.296 35.0311C51.3929 35.5279 55.6398 36.1561 55.6023 36.3904C54.5793 38.7605 52.8076 40.7298 50.5585 41.9967ZM44.7179 37.0279C44.8398 36.8967 46.9398 37.0279 46.5929 38.8373C46.246 40.6467 43.9773 41.2842 43.9304 41.0404C44.0968 40.3026 44.3002 39.5735 44.5398 38.8561C44.8023 37.7592 44.4835 37.2623 44.7179 37.0279ZM15.3648 41.5373C15.2523 41.5373 13.1523 41.2842 13.1335 39.7654C13.152 39.2049 13.3046 38.6569 13.5787 38.1675C13.8527 37.6781 14.2402 37.2616 14.7085 36.9529C15.0702 38.4572 15.2899 39.992 15.3648 41.5373ZM29.6898 21.5967C36.5804 21.5967 38.4179 22.8529 38.7742 22.8529C39.1304 22.8529 39.1867 20.9779 39.1023 20.5561C39.0179 20.1342 35.6242 18.4748 29.5867 18.4467C23.5492 18.4186 21.0742 19.9279 20.7648 20.0404C19.6398 20.4342 20.0898 22.8529 20.4367 23.0779C20.7835 23.3029 22.7992 21.5967 29.6898 21.5967ZM21.1585 20.6592C21.3929 20.1717 24.2242 19.0748 29.9054 19.3373C35.5867 19.5998 38.2492 20.5561 38.2492 20.8748C38.2492 21.1936 38.446 21.6904 38.2492 21.6904C35.4549 20.8845 32.5485 20.5362 29.6429 20.6592C26.8374 20.7679 24.0506 21.1669 21.3273 21.8498C21.0085 21.7561 21.0835 20.7811 21.1585 20.6592ZM39.571 29.4342C39.721 24.0998 34.8835 23.3217 32.2492 24.3904C29.6148 25.4592 28.4992 29.5654 30.6835 32.5373C32.8679 35.5092 39.3742 34.7686 39.571 29.4342ZM31.321 31.9092C29.5117 29.4623 30.3835 26.1342 32.6148 25.2248C34.846 24.3154 38.746 24.9811 38.6242 29.3592C38.5023 33.7373 33.1304 34.3748 31.321 31.9092ZM28.2648 28.9092C28.4054 23.9967 23.9242 23.2842 21.5148 24.2686C19.1054 25.2529 18.0367 29.0311 20.071 31.7686C22.1054 34.5061 28.1242 33.8311 28.2648 28.9092ZM21.8992 25.0467C23.8679 24.2404 27.5242 24.8217 27.4304 28.8623C27.3367 32.9029 22.3773 33.4654 20.7085 31.2154C19.0398 28.9654 19.8835 25.8904 21.8992 25.0467ZM24.571 29.0029C24.5793 28.83 24.5422 28.6579 24.4635 28.5037C24.3847 28.3495 24.267 28.2185 24.1221 28.1238C23.9772 28.029 23.81 27.9738 23.6371 27.9636C23.4643 27.9534 23.2918 27.9885 23.1367 28.0654C23.0008 28.1401 22.8831 28.2439 22.7921 28.3695C22.7011 28.495 22.639 28.6391 22.6104 28.7915C22.5817 28.9439 22.5871 29.1007 22.6262 29.2507C22.6653 29.4007 22.7372 29.5402 22.8367 29.6592C22.9682 29.814 23.1443 29.9243 23.341 29.975C23.5377 30.0258 23.7452 30.0144 23.9352 29.9425C24.1252 29.8706 24.2883 29.7418 24.4021 29.5735C24.5159 29.4053 24.5749 29.206 24.571 29.0029ZM35.5867 29.4154C35.6028 29.2399 35.572 29.0632 35.4974 28.9036C35.4227 28.7439 35.307 28.6069 35.1619 28.5067C35.0169 28.4065 34.8478 28.3467 34.672 28.3334C34.4963 28.3201 34.3201 28.3538 34.1617 28.4311C34.0251 28.5049 33.9065 28.6081 33.8146 28.7332C33.7226 28.8584 33.6596 29.0023 33.63 29.1548C33.6004 29.3072 33.605 29.4643 33.6435 29.6148C33.6819 29.7652 33.7532 29.9053 33.8523 30.0248C33.9772 30.1915 34.1517 30.3142 34.3508 30.3754C34.5498 30.4366 34.7632 30.433 34.9601 30.3653C35.157 30.2976 35.3274 30.1691 35.4467 29.9985C35.5661 29.8278 35.6282 29.6237 35.6242 29.4154H35.5867ZM25.6773 35.2186C25.6773 35.0686 25.6773 34.5061 25.4898 34.4592C24.5603 34.7189 23.5931 34.8172 22.6304 34.7498C21.5901 34.6484 20.6071 34.2258 19.8179 33.5404C19.7054 33.5404 19.2835 34.0748 19.3867 34.2342C20.1469 34.986 21.1371 35.4613 22.1992 35.5842C23.3695 35.8009 24.5776 35.6739 25.6773 35.2186ZM39.271 33.9154C38.5231 34.522 37.672 34.9888 36.7585 35.2936C35.7612 35.6104 34.6902 35.6104 33.6929 35.2936C33.5804 35.2936 33.4023 35.9967 33.5617 36.0998C34.5394 36.4947 35.6199 36.5573 36.6367 36.2779C37.8197 36.0285 38.9026 35.4349 39.7492 34.5717C39.6929 34.4029 39.4679 33.8873 39.271 33.9154ZM29.3804 41.2842C27.7867 41.2842 27.9648 35.5373 27.9085 35.3404C27.8523 35.1436 27.1679 35.3404 27.1773 35.4342C27.1867 35.5279 26.6054 42.2592 29.4179 42.2967C32.2304 42.3342 31.2929 35.2186 31.2929 35.2186C31.0482 35.1726 30.797 35.1726 30.5523 35.2186C30.4492 35.3498 30.9835 41.2842 29.3804 41.2842ZM21.2898 41.6592C21.1304 41.6592 20.4367 42.2029 20.2023 42.7186C20.0543 43.249 19.9941 43.8 20.0242 44.3498C20.2145 44.4985 20.4483 44.5808 20.6898 44.5842C20.8023 44.5842 20.7554 43.7217 20.7929 43.2529C20.8304 42.7842 21.5242 42.3904 21.6367 42.2404C21.7492 42.0904 21.4398 41.7248 21.2898 41.6873V41.6592ZM36.5429 41.1436C36.3835 41.1436 35.8867 41.7342 35.8867 41.7342C36.4121 41.9033 36.884 42.2072 37.2554 42.6154C37.6867 43.2436 37.2554 44.2936 37.2554 44.4061C37.2554 44.5186 37.7242 44.4061 37.996 44.4061C38.2679 44.4061 38.2585 43.4686 37.9023 42.5311C37.6456 41.9168 37.1572 41.4284 36.5429 41.1717V41.1436ZM28.5929 44.8936C24.196 45.0436 22.3117 43.7592 22.1148 43.7029C21.9179 43.6467 21.7773 44.4061 21.8523 44.5561C21.9273 44.7061 23.9617 45.7842 28.4148 45.8686C32.8679 45.9529 35.9898 44.3686 36.0273 44.2186C36.0334 43.9505 35.9789 43.6845 35.8679 43.4404C33.5239 44.2668 31.0745 44.756 28.5929 44.8936Z" fill="#1D1D1B"/>
</svg>
